<svg id="Layer_2" data-name="Layer 2" xmlns="http://www.w3.org/2000/svg" viewBox="0 0 717.14 179.34">
  <defs>
    <style>
      .cls-1 {
        fill: #dc3545;
      }
    </style>
  </defs>
  <title>KrikiaLogo2</title>
  <g>
    <path class="cls-1" d="M155.72,14.46A10.62,10.62,0,0,0,144,14.41V192h96V76.3ZM214.82,134H203.13V122.34h11.69Zm0-15.17H203.13v-11.7h11.69Zm2.15-42A19.53,19.53,0,0,1,196.6,94a6.92,6.92,0,0,0-6.09,2.61c-4.94,5.78-10.06,11.4-15.17,17.05l-.05,0a2.24,2.24,0,0,0-.15,3.16q8.19,11.67,16.33,23.39c3.21,4.6,6.38,9.22,9.57,13.84.13.19-.24,23.22-.16,37.89H190.37l-4.76-6.8Q172,165.57,158.42,146q-4.35-6.3-8.77-12.57c-1-1.47-.94-2.68.55-3.82,11.67-9,21.12-20.15,30.77-31.09,1.46-1.65,2.87-3.36,4.43-4.92,1.33-1.29,1.16-2-.37-3.09a20,20,0,0,1-2.38-1.92,19.7,19.7,0,0,1-.77-27.84,20.48,20.48,0,0,1,24.55-4.13A19.44,19.44,0,0,1,217,76.88ZM230,134H218.3V122.34H230Zm0-15.17H218.3v-11.7H230Z" transform="translate(-60 -12.67)"/>
    <polygon class="cls-1" points="0 63.62 0 179.33 53 179.33 53 24.57 0 63.62"/>
  </g>
  <path d="M670.63,99.27v91c-.84.07-1.59.17-2.34.17q-15.3,0-30.6.05c-2.05,0-2.69-.5-2.69-2.42q.11-43.29,0-86.56c0-1.42,0-2.43,2.18-2.41,10.72.08,21.45,0,32.17,0A10.93,10.93,0,0,1,670.63,99.27Z" transform="translate(-60 -12.67)"/>
  <rect class="cls-1" x="575" y="52.36" width="35.63" height="23.79"/>
  <path d="M394.67,98.59h33.26v15.19q4.8-9.86,9.9-13.57a20.93,20.93,0,0,1,12.62-3.71q7.85,0,17.19,4.89l-11,25.31q-6.28-2.62-9.95-2.62a12.28,12.28,0,0,0-10.82,5.76q-5.49,8.11-5.5,30.37v31.08h-35.7Z" transform="translate(-60 -12.67)"/>
  <path d="M777.14,100.13v88.16H748.6V174q-6.11,9.17-13.75,13.44a36.12,36.12,0,0,1-17.93,4.28q-17.64,0-28.19-12.87T678.17,144.3q0-21.56,11-34.26t29.71-12.7a33.28,33.28,0,0,1,17.16,4.23q7.2,4.25,12.35,13.05V100.13Zm-27.32,44q0-10.29-5.5-16.32t-15-6q-9.51,0-15,6t-5.45,16.36q0,10.31,5.5,16.24t14.92,5.93q9.51,0,15-5.93T749.82,144.12Z" transform="translate(-60 -12.67)"/>
  <rect class="cls-1" x="222.89" y="11.69" width="36.79" height="167.56"/>
  <path class="cls-1" d="M401.91,51.67c-1.67,11.7-10.77,19.67-22.57,19.4a7.61,7.61,0,0,0-6.75,3c-5.47,6.57-11.17,12.94-16.82,19.36a2.57,2.57,0,0,0-.21,3.62q9.09,13.23,18.1,26.53,5.32,7.83,10.6,15.69c.18.27-.49,40.15,0,52.72h-1.78a5.65,5.65,0,0,1-5.25-2.64c-3.31-5-6.69-9.93-10-14.89L337.09,130c-3.23-4.75-6.46-9.51-9.73-14.24-1.15-1.68-1-3,.62-4.35,12.93-10.24,23.41-22.84,34.1-35.25,1.58-1.88,3.14-3.88,4.83-5.6,1.44-1.48,1.28-2.31-.41-3.51a22.63,22.63,0,1,1,35.41-15.41Z" transform="translate(-60 -12.67)"/>
  <path d="M559.78,190.46H528.25c-3.46,0-3.46,0-3.47-3.32V68.89c0-4.66,0-3.78,4.23-3.8h30.77Z" transform="translate(-60 -12.67)"/>
  <path d="M617.69,190.46h-34.1a2.14,2.14,0,0,1-2.43-1.68c-6.5-18.92-13.07-37.8-19.56-56.72a4,4,0,0,1,.18-2.67q6.68-14.31,13.53-28.54c.35-.72,1.26-1.65,1.92-1.66,10.7-.1,21.41-.07,32.58-.07-.49,1.1-.82,1.93-1.21,2.74-4.56,9.4-9.1,18.81-13.72,28.19a4.84,4.84,0,0,0-.2,4.47q11.12,26.6,22.06,53.26C617.07,188.59,617.32,189.41,617.69,190.46Z" transform="translate(-60 -12.67)"/>
  <path d="M509.9,99.27v91c-.84.07-1.59.17-2.34.17q-15.3,0-30.6.05c-2,0-2.69-.5-2.69-2.42q.09-43.29,0-86.56c0-1.42,0-2.43,2.18-2.41,10.72.08,21.44,0,32.17,0A10.93,10.93,0,0,1,509.9,99.27Z" transform="translate(-60 -12.67)"/>
  <rect class="cls-1" x="414.27" y="52.36" width="35.63" height="23.79"/>
</svg>
